<svg width="51" height="13" viewBox="0 0 51 13" fill="none" xmlns="http://www.w3.org/2000/svg">
<path d="M9.132 3.448C9.644 3.448 10.096 3.552 10.488 3.76C10.888 3.96 11.2 4.272 11.424 4.696C11.656 5.112 11.772 5.648 11.772 6.304V10H9.9V6.592C9.9 6.072 9.792 5.688 9.576 5.44C9.36 5.192 9.056 5.068 8.664 5.068C8.392 5.068 8.148 5.132 7.932 5.26C7.716 5.38 7.548 5.564 7.428 5.812C7.308 6.06 7.248 6.376 7.248 6.76V10H5.376V6.592C5.376 6.072 5.268 5.688 5.052 5.44C4.844 5.192 4.544 5.068 4.152 5.068C3.88 5.068 3.636 5.132 3.42 5.26C3.204 5.38 3.036 5.564 2.916 5.812C2.796 6.06 2.736 6.376 2.736 6.76V10H0.864V3.544H2.652V5.308L2.316 4.792C2.54 4.352 2.856 4.02 3.264 3.796C3.68 3.564 4.152 3.448 4.68 3.448C5.272 3.448 5.788 3.6 6.228 3.904C6.676 4.2 6.972 4.656 7.116 5.272L6.456 5.092C6.672 4.588 7.016 4.188 7.488 3.892C7.968 3.596 8.516 3.448 9.132 3.448Z" fill="#E3EE8C"/>
<path d="M16.4019 10.072C15.7619 10.072 15.1939 9.932 14.6979 9.652C14.2019 9.372 13.8099 8.988 13.5219 8.5C13.2339 8.004 13.0899 7.444 13.0899 6.82C13.0899 6.188 13.2339 5.628 13.5219 5.14C13.8099 4.652 14.2019 4.272 14.6979 4C15.1939 3.72 15.7619 3.58 16.4019 3.58C17.0339 3.58 17.5979 3.72 18.0939 4C18.5979 4.272 18.9899 4.652 19.2699 5.14C19.5579 5.62 19.7019 6.18 19.7019 6.82C19.7019 7.452 19.5579 8.012 19.2699 8.5C18.9899 8.988 18.5979 9.372 18.0939 9.652C17.5979 9.932 17.0339 10.072 16.4019 10.072ZM16.4019 9.064C16.8099 9.064 17.1739 8.972 17.4939 8.788C17.8219 8.604 18.0779 8.344 18.2619 8.008C18.4459 7.664 18.5379 7.268 18.5379 6.82C18.5379 6.364 18.4459 5.972 18.2619 5.644C18.0779 5.308 17.8219 5.048 17.4939 4.864C17.1739 4.68 16.8099 4.588 16.4019 4.588C15.9939 4.588 15.6299 4.68 15.3099 4.864C14.9899 5.048 14.7339 5.308 14.5419 5.644C14.3499 5.972 14.2539 6.364 14.2539 6.82C14.2539 7.268 14.3499 7.664 14.5419 8.008C14.7339 8.344 14.9899 8.604 15.3099 8.788C15.6299 8.972 15.9939 9.064 16.4019 9.064ZM24.0191 10.072C23.3791 10.072 22.8111 9.932 22.3151 9.652C21.8191 9.372 21.4271 8.988 21.1391 8.5C20.8511 8.004 20.7071 7.444 20.7071 6.82C20.7071 6.188 20.8511 5.628 21.1391 5.14C21.4271 4.652 21.8191 4.272 22.3151 4C22.8111 3.72 23.3791 3.58 24.0191 3.58C24.6511 3.58 25.2151 3.72 25.7111 4C26.2151 4.272 26.6071 4.652 26.8871 5.14C27.1751 5.62 27.3191 6.18 27.3191 6.82C27.3191 7.452 27.1751 8.012 26.8871 8.5C26.6071 8.988 26.2151 9.372 25.7111 9.652C25.2151 9.932 24.6511 10.072 24.0191 10.072ZM24.0191 9.064C24.4271 9.064 24.7911 8.972 25.1111 8.788C25.4391 8.604 25.6951 8.344 25.8791 8.008C26.0631 7.664 26.1551 7.268 26.1551 6.82C26.1551 6.364 26.0631 5.972 25.8791 5.644C25.6951 5.308 25.4391 5.048 25.1111 4.864C24.7911 4.68 24.4271 4.588 24.0191 4.588C23.6111 4.588 23.2471 4.68 22.9271 4.864C22.6071 5.048 22.3511 5.308 22.1591 5.644C21.9671 5.972 21.8711 6.364 21.8711 6.82C21.8711 7.268 21.9671 7.664 22.1591 8.008C22.3511 8.344 22.6071 8.604 22.9271 8.788C23.2471 8.972 23.6111 9.064 24.0191 9.064ZM31.5403 10.072C30.9243 10.072 30.3723 9.936 29.8843 9.664C29.4043 9.392 29.0243 9.012 28.7443 8.524C28.4643 8.036 28.3243 7.468 28.3243 6.82C28.3243 6.172 28.4643 5.608 28.7443 5.128C29.0243 4.64 29.4043 4.26 29.8843 3.988C30.3723 3.716 30.9243 3.58 31.5403 3.58C32.0763 3.58 32.5603 3.7 32.9923 3.94C33.4243 4.18 33.7683 4.54 34.0243 5.02C34.2883 5.5 34.4203 6.1 34.4203 6.82C34.4203 7.54 34.2923 8.14 34.0363 8.62C33.7883 9.1 33.4483 9.464 33.0163 9.712C32.5843 9.952 32.0923 10.072 31.5403 10.072ZM31.6363 9.064C32.0363 9.064 32.3963 8.972 32.7163 8.788C33.0443 8.604 33.3003 8.344 33.4843 8.008C33.6763 7.664 33.7723 7.268 33.7723 6.82C33.7723 6.364 33.6763 5.972 33.4843 5.644C33.3003 5.308 33.0443 5.048 32.7163 4.864C32.3963 4.68 32.0363 4.588 31.6363 4.588C31.2283 4.588 30.8643 4.68 30.5443 4.864C30.2243 5.048 29.9683 5.308 29.7763 5.644C29.5843 5.972 29.4883 6.364 29.4883 6.82C29.4883 7.268 29.5843 7.664 29.7763 8.008C29.9683 8.344 30.2243 8.604 30.5443 8.788C30.8643 8.972 31.2283 9.064 31.6363 9.064ZM33.8083 10V8.284L33.8803 6.808L33.7603 5.332V1.096H34.9123V10H33.8083ZM37.092 10V3.64H38.244V10H37.092ZM37.668 2.416C37.444 2.416 37.256 2.344 37.104 2.2C36.96 2.056 36.888 1.88 36.888 1.672C36.888 1.456 36.96 1.276 37.104 1.132C37.256 0.988 37.444 0.916 37.668 0.916C37.892 0.916 38.076 0.988 38.22 1.132C38.372 1.268 38.448 1.44 38.448 1.648C38.448 1.864 38.376 2.048 38.232 2.2C38.088 2.344 37.9 2.416 37.668 2.416ZM40.6116 10V3.076C40.6116 2.452 40.7916 1.956 41.1516 1.588C41.5196 1.212 42.0396 1.024 42.7116 1.024C42.9596 1.024 43.1956 1.056 43.4196 1.12C43.6516 1.176 43.8476 1.268 44.0076 1.396L43.6596 2.272C43.5396 2.176 43.4036 2.104 43.2516 2.056C43.0996 2 42.9396 1.972 42.7716 1.972C42.4356 1.972 42.1796 2.068 42.0036 2.26C41.8276 2.444 41.7396 2.72 41.7396 3.088V3.94L41.7636 4.468V10H40.6116ZM39.5316 4.588V3.64H43.5876V4.588H39.5316ZM45.0672 12.4C44.7632 12.4 44.4672 12.348 44.1792 12.244C43.8912 12.148 43.6432 12.004 43.4352 11.812L43.9272 10.948C44.0872 11.1 44.2632 11.216 44.4552 11.296C44.6472 11.376 44.8512 11.416 45.0672 11.416C45.3472 11.416 45.5792 11.344 45.7632 11.2C45.9472 11.056 46.1192 10.8 46.2792 10.432L46.6752 9.556L46.7952 9.412L49.2912 3.64H50.4192L47.3352 10.636C47.1512 11.084 46.9432 11.436 46.7112 11.692C46.4872 11.948 46.2392 12.128 45.9672 12.232C45.6952 12.344 45.3952 12.4 45.0672 12.4ZM46.5792 10.204L43.6752 3.64H44.8752L47.3472 9.304L46.5792 10.204Z" fill="#9985C4"/>
</svg>
